<mxfile host="Electron" agent="Mozilla/5.0 (Windows NT 10.0; Win64; x64) AppleWebKit/537.36 (KHTML, like Gecko) draw.io/24.7.8 Chrome/128.0.6613.36 Electron/32.0.1 Safari/537.36" version="24.7.8">
  <diagram name="Page-1" id="klR-Imrqb1zHrEi3bp9T">
    <mxGraphModel dx="530" dy="365" grid="1" gridSize="10" guides="1" tooltips="1" connect="1" arrows="1" fold="1" page="1" pageScale="1" pageWidth="827" pageHeight="1169" math="0" shadow="0">
      <root>
        <mxCell id="0" />
        <mxCell id="1" parent="0" />
        <mxCell id="ebkvWAT0GK6iZ5UyHKcp-1" value="" style="rounded=0;whiteSpace=wrap;html=1;fillColor=#f5f5f5;fontColor=#333333;strokeColor=#666666;" vertex="1" parent="1">
          <mxGeometry x="410" y="290" width="320" height="200" as="geometry" />
        </mxCell>
        <mxCell id="ebkvWAT0GK6iZ5UyHKcp-2" value="NXP&lt;div&gt;FRDM-MCXN947&lt;/div&gt;" style="text;html=1;align=center;verticalAlign=middle;whiteSpace=wrap;rounded=0;" vertex="1" parent="1">
          <mxGeometry x="500" y="365" width="140" height="50" as="geometry" />
        </mxCell>
        <mxCell id="ebkvWAT0GK6iZ5UyHKcp-4" value="" style="rounded=0;whiteSpace=wrap;html=1;fillColor=#f5f5f5;gradientColor=#b3b3b3;strokeColor=#666666;" vertex="1" parent="1">
          <mxGeometry x="400" y="335" width="10" height="30" as="geometry" />
        </mxCell>
        <mxCell id="ebkvWAT0GK6iZ5UyHKcp-5" value="" style="rounded=0;whiteSpace=wrap;html=1;fillColor=#f5f5f5;gradientColor=#b3b3b3;strokeColor=#666666;" vertex="1" parent="1">
          <mxGeometry x="400" y="415" width="10" height="30" as="geometry" />
        </mxCell>
        <mxCell id="ebkvWAT0GK6iZ5UyHKcp-6" value="" style="rounded=0;whiteSpace=wrap;html=1;fillColor=#f5f5f5;gradientColor=#b3b3b3;strokeColor=#666666;" vertex="1" parent="1">
          <mxGeometry x="390" y="335" width="10" height="30" as="geometry" />
        </mxCell>
        <mxCell id="ebkvWAT0GK6iZ5UyHKcp-7" value="" style="rounded=0;whiteSpace=wrap;html=1;fillColor=#f5f5f5;gradientColor=#b3b3b3;strokeColor=#666666;" vertex="1" parent="1">
          <mxGeometry x="390" y="415" width="10" height="30" as="geometry" />
        </mxCell>
        <mxCell id="ebkvWAT0GK6iZ5UyHKcp-8" value="" style="rounded=0;whiteSpace=wrap;html=1;fillColor=#d5e8d4;strokeColor=#82b366;" vertex="1" parent="1">
          <mxGeometry x="250" y="290" width="140" height="200" as="geometry" />
        </mxCell>
        <mxCell id="ebkvWAT0GK6iZ5UyHKcp-9" value="USB-C&lt;div&gt;Extension&lt;/div&gt;" style="text;html=1;align=center;verticalAlign=middle;whiteSpace=wrap;rounded=0;" vertex="1" parent="1">
          <mxGeometry x="290" y="330" width="60" height="120" as="geometry" />
        </mxCell>
        <mxCell id="ebkvWAT0GK6iZ5UyHKcp-10" value="" style="rounded=0;whiteSpace=wrap;html=1;fillColor=#f5f5f5;gradientColor=#b3b3b3;strokeColor=#666666;" vertex="1" parent="1">
          <mxGeometry x="240" y="335" width="10" height="30" as="geometry" />
        </mxCell>
        <mxCell id="ebkvWAT0GK6iZ5UyHKcp-11" value="" style="rounded=0;whiteSpace=wrap;html=1;fillColor=#f5f5f5;gradientColor=#b3b3b3;strokeColor=#666666;" vertex="1" parent="1">
          <mxGeometry x="240" y="415" width="10" height="30" as="geometry" />
        </mxCell>
        <mxCell id="ebkvWAT0GK6iZ5UyHKcp-12" value="" style="rounded=1;whiteSpace=wrap;html=1;fillColor=#fff2cc;strokeColor=#d6b656;" vertex="1" parent="1">
          <mxGeometry x="40" y="280" width="120" height="80" as="geometry" />
        </mxCell>
        <mxCell id="ebkvWAT0GK6iZ5UyHKcp-13" value="&lt;font style=&quot;font-size: 11px;&quot;&gt;USB-C 0&lt;/font&gt;&lt;div style=&quot;font-size: 11px;&quot;&gt;&lt;font style=&quot;font-size: 11px;&quot;&gt;(used for power supply + debug console in recorder mode)&lt;/font&gt;&lt;/div&gt;" style="text;html=1;align=center;verticalAlign=middle;whiteSpace=wrap;rounded=0;" vertex="1" parent="1">
          <mxGeometry x="40" y="280" width="120" height="80" as="geometry" />
        </mxCell>
        <mxCell id="ebkvWAT0GK6iZ5UyHKcp-14" value="" style="endArrow=classic;html=1;rounded=0;exitX=1;exitY=0.5;exitDx=0;exitDy=0;entryX=0;entryY=0.5;entryDx=0;entryDy=0;fillColor=#fff2cc;strokeColor=#d6b656;" edge="1" parent="1" source="ebkvWAT0GK6iZ5UyHKcp-13" target="ebkvWAT0GK6iZ5UyHKcp-10">
          <mxGeometry width="50" height="50" relative="1" as="geometry">
            <mxPoint x="190" y="400" as="sourcePoint" />
            <mxPoint x="230" y="350" as="targetPoint" />
          </mxGeometry>
        </mxCell>
        <mxCell id="ebkvWAT0GK6iZ5UyHKcp-15" value="" style="rounded=1;whiteSpace=wrap;html=1;fillColor=#fff2cc;strokeColor=#d6b656;" vertex="1" parent="1">
          <mxGeometry x="40" y="400" width="120" height="80" as="geometry" />
        </mxCell>
        <mxCell id="ebkvWAT0GK6iZ5UyHKcp-16" value="&lt;font style=&quot;font-size: 11px;&quot;&gt;USB-C 1&lt;/font&gt;&lt;div style=&quot;font-size: 11px;&quot;&gt;&lt;font style=&quot;font-size: 11px;&quot;&gt;(used for power supply + Mass Storage mode)&lt;/font&gt;&lt;/div&gt;" style="text;html=1;align=center;verticalAlign=middle;whiteSpace=wrap;rounded=0;" vertex="1" parent="1">
          <mxGeometry x="40" y="400" width="120" height="80" as="geometry" />
        </mxCell>
        <mxCell id="ebkvWAT0GK6iZ5UyHKcp-17" value="" style="endArrow=classic;html=1;rounded=0;exitX=1;exitY=0.5;exitDx=0;exitDy=0;entryX=0;entryY=0.5;entryDx=0;entryDy=0;fillColor=#fff2cc;strokeColor=#d6b656;" edge="1" parent="1" source="ebkvWAT0GK6iZ5UyHKcp-16" target="ebkvWAT0GK6iZ5UyHKcp-11">
          <mxGeometry width="50" height="50" relative="1" as="geometry">
            <mxPoint x="170" y="445" as="sourcePoint" />
            <mxPoint x="220" y="395" as="targetPoint" />
          </mxGeometry>
        </mxCell>
        <mxCell id="ebkvWAT0GK6iZ5UyHKcp-18" value="" style="endArrow=classic;html=1;rounded=0;entryX=0.22;entryY=0;entryDx=0;entryDy=0;entryPerimeter=0;" edge="1" parent="1" target="ebkvWAT0GK6iZ5UyHKcp-1">
          <mxGeometry width="50" height="50" relative="1" as="geometry">
            <mxPoint x="320" y="290" as="sourcePoint" />
            <mxPoint x="370" y="240" as="targetPoint" />
            <Array as="points">
              <mxPoint x="320" y="240" />
              <mxPoint x="480" y="240" />
            </Array>
          </mxGeometry>
        </mxCell>
        <mxCell id="ebkvWAT0GK6iZ5UyHKcp-19" value="&lt;font style=&quot;font-size: 10px;&quot;&gt;Power Loss Detection&lt;/font&gt;" style="text;html=1;align=center;verticalAlign=middle;whiteSpace=wrap;rounded=0;" vertex="1" parent="1">
          <mxGeometry x="320" y="220" width="160" height="20" as="geometry" />
        </mxCell>
        <mxCell id="ebkvWAT0GK6iZ5UyHKcp-20" value="&lt;font style=&quot;font-size: 7px;&quot;&gt;ADC / GPIO&lt;/font&gt;" style="text;html=1;align=center;verticalAlign=middle;whiteSpace=wrap;rounded=0;rotation=90;" vertex="1" parent="1">
          <mxGeometry x="460" y="305" width="45" height="20" as="geometry" />
        </mxCell>
        <mxCell id="ebkvWAT0GK6iZ5UyHKcp-28" value="&lt;font style=&quot;font-size: 7px;&quot;&gt;GND&lt;/font&gt;" style="text;html=1;align=center;verticalAlign=middle;whiteSpace=wrap;rounded=0;rotation=90;" vertex="1" parent="1">
          <mxGeometry x="490" y="305" width="45" height="20" as="geometry" />
        </mxCell>
        <mxCell id="ebkvWAT0GK6iZ5UyHKcp-29" value="&lt;font style=&quot;font-size: 7px;&quot;&gt;3V3&lt;/font&gt;" style="text;html=1;align=center;verticalAlign=middle;whiteSpace=wrap;rounded=0;rotation=90;" vertex="1" parent="1">
          <mxGeometry x="510" y="305" width="45" height="20" as="geometry" />
        </mxCell>
        <mxCell id="ebkvWAT0GK6iZ5UyHKcp-30" value="&lt;span style=&quot;font-size: 7px;&quot;&gt;SDA (P4_0)&lt;/span&gt;" style="text;html=1;align=center;verticalAlign=middle;whiteSpace=wrap;rounded=0;rotation=90;" vertex="1" parent="1">
          <mxGeometry x="530" y="305" width="45" height="20" as="geometry" />
        </mxCell>
        <mxCell id="ebkvWAT0GK6iZ5UyHKcp-31" value="&lt;font style=&quot;font-size: 7px;&quot;&gt;SCL (P4_1)&lt;/font&gt;" style="text;html=1;align=center;verticalAlign=middle;whiteSpace=wrap;rounded=0;rotation=90;" vertex="1" parent="1">
          <mxGeometry x="547.5" y="305" width="45" height="20" as="geometry" />
        </mxCell>
        <mxCell id="ebkvWAT0GK6iZ5UyHKcp-32" value="" style="endArrow=none;html=1;rounded=0;" edge="1" parent="1">
          <mxGeometry width="50" height="50" relative="1" as="geometry">
            <mxPoint x="700" y="520" as="sourcePoint" />
            <mxPoint x="700" y="490" as="targetPoint" />
          </mxGeometry>
        </mxCell>
        <mxCell id="ebkvWAT0GK6iZ5UyHKcp-33" value="" style="group" vertex="1" connectable="0" parent="1">
          <mxGeometry x="510" y="100" width="80" height="60.00000000000006" as="geometry" />
        </mxCell>
        <mxCell id="ebkvWAT0GK6iZ5UyHKcp-23" value="" style="group" vertex="1" connectable="0" parent="ebkvWAT0GK6iZ5UyHKcp-33">
          <mxGeometry y="40" width="80" height="60" as="geometry" />
        </mxCell>
        <mxCell id="ebkvWAT0GK6iZ5UyHKcp-21" value="" style="rounded=0;whiteSpace=wrap;html=1;" vertex="1" parent="ebkvWAT0GK6iZ5UyHKcp-23">
          <mxGeometry width="80" height="60" as="geometry" />
        </mxCell>
        <mxCell id="ebkvWAT0GK6iZ5UyHKcp-22" value="RTC&lt;div&gt;DS3231&lt;/div&gt;" style="text;html=1;align=center;verticalAlign=middle;whiteSpace=wrap;rounded=0;" vertex="1" parent="ebkvWAT0GK6iZ5UyHKcp-23">
          <mxGeometry width="80" height="60" as="geometry" />
        </mxCell>
        <mxCell id="ebkvWAT0GK6iZ5UyHKcp-24" value="" style="endArrow=none;html=1;rounded=0;exitX=0.344;exitY=0.003;exitDx=0;exitDy=0;exitPerimeter=0;" edge="1" parent="ebkvWAT0GK6iZ5UyHKcp-33" source="ebkvWAT0GK6iZ5UyHKcp-1">
          <mxGeometry width="50" height="50" relative="1" as="geometry">
            <mxPoint x="10" y="187.36" as="sourcePoint" />
            <mxPoint x="10" y="100" as="targetPoint" />
          </mxGeometry>
        </mxCell>
        <mxCell id="ebkvWAT0GK6iZ5UyHKcp-25" value="" style="endArrow=none;html=1;rounded=0;exitX=0.406;exitY=0;exitDx=0;exitDy=0;exitPerimeter=0;" edge="1" parent="ebkvWAT0GK6iZ5UyHKcp-33" source="ebkvWAT0GK6iZ5UyHKcp-1">
          <mxGeometry width="50" height="50" relative="1" as="geometry">
            <mxPoint x="30" y="187" as="sourcePoint" />
            <mxPoint x="30" y="100" as="targetPoint" />
          </mxGeometry>
        </mxCell>
        <mxCell id="ebkvWAT0GK6iZ5UyHKcp-26" value="" style="endArrow=none;html=1;rounded=0;exitX=0.468;exitY=0.001;exitDx=0;exitDy=0;exitPerimeter=0;" edge="1" parent="ebkvWAT0GK6iZ5UyHKcp-33" source="ebkvWAT0GK6iZ5UyHKcp-1">
          <mxGeometry width="50" height="50" relative="1" as="geometry">
            <mxPoint x="50" y="187" as="sourcePoint" />
            <mxPoint x="50" y="100" as="targetPoint" />
          </mxGeometry>
        </mxCell>
        <mxCell id="ebkvWAT0GK6iZ5UyHKcp-27" value="" style="endArrow=none;html=1;rounded=0;exitX=0.531;exitY=0.002;exitDx=0;exitDy=0;exitPerimeter=0;" edge="1" parent="ebkvWAT0GK6iZ5UyHKcp-33" source="ebkvWAT0GK6iZ5UyHKcp-1">
          <mxGeometry width="50" height="50" relative="1" as="geometry">
            <mxPoint x="69.83000000000004" y="187" as="sourcePoint" />
            <mxPoint x="70" y="100" as="targetPoint" />
          </mxGeometry>
        </mxCell>
        <mxCell id="ebkvWAT0GK6iZ5UyHKcp-34" value="" style="endArrow=none;html=1;rounded=0;" edge="1" parent="1">
          <mxGeometry width="50" height="50" relative="1" as="geometry">
            <mxPoint x="680" y="520" as="sourcePoint" />
            <mxPoint x="680" y="490" as="targetPoint" />
          </mxGeometry>
        </mxCell>
        <mxCell id="ebkvWAT0GK6iZ5UyHKcp-35" value="" style="endArrow=none;html=1;rounded=0;" edge="1" parent="1">
          <mxGeometry width="50" height="50" relative="1" as="geometry">
            <mxPoint x="660" y="520" as="sourcePoint" />
            <mxPoint x="660" y="490" as="targetPoint" />
          </mxGeometry>
        </mxCell>
        <mxCell id="ebkvWAT0GK6iZ5UyHKcp-36" value="" style="endArrow=none;html=1;rounded=0;" edge="1" parent="1">
          <mxGeometry width="50" height="50" relative="1" as="geometry">
            <mxPoint x="640" y="520" as="sourcePoint" />
            <mxPoint x="640" y="490" as="targetPoint" />
          </mxGeometry>
        </mxCell>
        <mxCell id="ebkvWAT0GK6iZ5UyHKcp-37" value="" style="endArrow=none;html=1;rounded=0;" edge="1" parent="1">
          <mxGeometry width="50" height="50" relative="1" as="geometry">
            <mxPoint x="620" y="520" as="sourcePoint" />
            <mxPoint x="620" y="490" as="targetPoint" />
          </mxGeometry>
        </mxCell>
        <mxCell id="ebkvWAT0GK6iZ5UyHKcp-38" value="" style="endArrow=none;html=1;rounded=0;" edge="1" parent="1">
          <mxGeometry width="50" height="50" relative="1" as="geometry">
            <mxPoint x="600" y="520" as="sourcePoint" />
            <mxPoint x="600" y="490" as="targetPoint" />
          </mxGeometry>
        </mxCell>
        <mxCell id="ebkvWAT0GK6iZ5UyHKcp-39" value="" style="endArrow=none;html=1;rounded=0;" edge="1" parent="1">
          <mxGeometry width="50" height="50" relative="1" as="geometry">
            <mxPoint x="580" y="520" as="sourcePoint" />
            <mxPoint x="580" y="490" as="targetPoint" />
          </mxGeometry>
        </mxCell>
        <mxCell id="ebkvWAT0GK6iZ5UyHKcp-41" value="" style="rounded=0;whiteSpace=wrap;html=1;fillColor=#f8cecc;strokeColor=#b85450;" vertex="1" parent="1">
          <mxGeometry x="570" y="520" width="140" height="40" as="geometry" />
        </mxCell>
        <mxCell id="ebkvWAT0GK6iZ5UyHKcp-42" value="SDHC Card" style="text;html=1;align=center;verticalAlign=middle;whiteSpace=wrap;rounded=0;" vertex="1" parent="1">
          <mxGeometry x="570" y="530" width="140" height="30" as="geometry" />
        </mxCell>
        <mxCell id="ebkvWAT0GK6iZ5UyHKcp-43" value="&lt;font style=&quot;font-size: 7px;&quot;&gt;SDHC0_D1&amp;nbsp;(P2_2)&lt;/font&gt;" style="text;html=1;align=center;verticalAlign=middle;whiteSpace=wrap;rounded=0;rotation=90;" vertex="1" parent="1">
          <mxGeometry x="670" y="447.5" width="60" height="20" as="geometry" />
        </mxCell>
        <mxCell id="ebkvWAT0GK6iZ5UyHKcp-44" value="&lt;font style=&quot;font-size: 7px;&quot;&gt;SDHC0_D0 (P2_3)&lt;/font&gt;" style="text;html=1;align=center;verticalAlign=middle;whiteSpace=wrap;rounded=0;rotation=90;" vertex="1" parent="1">
          <mxGeometry x="647.5" y="447.5" width="70" height="20" as="geometry" />
        </mxCell>
        <mxCell id="ebkvWAT0GK6iZ5UyHKcp-45" value="&lt;font style=&quot;font-size: 7px;&quot;&gt;SDHC0_CLK (P2_4)&lt;/font&gt;" style="text;html=1;align=center;verticalAlign=middle;whiteSpace=wrap;rounded=0;rotation=90;" vertex="1" parent="1">
          <mxGeometry x="625" y="445" width="72.5" height="20" as="geometry" />
        </mxCell>
        <mxCell id="ebkvWAT0GK6iZ5UyHKcp-46" value="&lt;font style=&quot;font-size: 7px;&quot;&gt;SDHC0_CMD&amp;nbsp;&lt;/font&gt;&lt;span style=&quot;font-size: 7px; background-color: initial;&quot;&gt;(P2_5)&lt;/span&gt;" style="text;html=1;align=center;verticalAlign=middle;whiteSpace=wrap;rounded=0;rotation=90;" vertex="1" parent="1">
          <mxGeometry x="605" y="445" width="70" height="20" as="geometry" />
        </mxCell>
        <mxCell id="ebkvWAT0GK6iZ5UyHKcp-47" value="&lt;font style=&quot;font-size: 7px;&quot;&gt;SDHC0_D3 (P2_6)&lt;/font&gt;" style="text;html=1;align=center;verticalAlign=middle;whiteSpace=wrap;rounded=0;rotation=90;" vertex="1" parent="1">
          <mxGeometry x="587.5" y="447.5" width="70" height="20" as="geometry" />
        </mxCell>
        <mxCell id="ebkvWAT0GK6iZ5UyHKcp-48" value="&lt;font style=&quot;font-size: 7px;&quot;&gt;SDHC0_D2 (P2_7)&lt;/font&gt;" style="text;html=1;align=center;verticalAlign=middle;whiteSpace=wrap;rounded=0;rotation=90;" vertex="1" parent="1">
          <mxGeometry x="567.5" y="447.5" width="70" height="20" as="geometry" />
        </mxCell>
        <mxCell id="ebkvWAT0GK6iZ5UyHKcp-50" value="" style="rounded=0;whiteSpace=wrap;html=1;" vertex="1" parent="1">
          <mxGeometry x="440" y="560" width="80" height="40" as="geometry" />
        </mxCell>
        <mxCell id="ebkvWAT0GK6iZ5UyHKcp-51" value="" style="endArrow=none;html=1;rounded=0;entryX=0.25;entryY=0;entryDx=0;entryDy=0;" edge="1" parent="1" target="ebkvWAT0GK6iZ5UyHKcp-50">
          <mxGeometry width="50" height="50" relative="1" as="geometry">
            <mxPoint x="460" y="490" as="sourcePoint" />
            <mxPoint x="450" y="520" as="targetPoint" />
          </mxGeometry>
        </mxCell>
        <mxCell id="ebkvWAT0GK6iZ5UyHKcp-52" value="" style="endArrow=none;html=1;rounded=0;entryX=0.25;entryY=0;entryDx=0;entryDy=0;" edge="1" parent="1">
          <mxGeometry width="50" height="50" relative="1" as="geometry">
            <mxPoint x="500" y="490" as="sourcePoint" />
            <mxPoint x="500" y="560" as="targetPoint" />
          </mxGeometry>
        </mxCell>
        <mxCell id="ebkvWAT0GK6iZ5UyHKcp-53" value="&lt;font style=&quot;font-size: 7px;&quot;&gt;LPUART_TX (-)&lt;/font&gt;" style="text;html=1;align=center;verticalAlign=middle;whiteSpace=wrap;rounded=0;rotation=90;" vertex="1" parent="1">
          <mxGeometry x="475" y="450" width="55" height="20" as="geometry" />
        </mxCell>
        <mxCell id="ebkvWAT0GK6iZ5UyHKcp-54" value="&lt;font style=&quot;font-size: 7px;&quot;&gt;LPUART_RX (-)&lt;/font&gt;" style="text;html=1;align=center;verticalAlign=middle;whiteSpace=wrap;rounded=0;rotation=90;" vertex="1" parent="1">
          <mxGeometry x="435" y="450" width="55" height="20" as="geometry" />
        </mxCell>
        <mxCell id="ebkvWAT0GK6iZ5UyHKcp-55" value="UART Interface" style="text;html=1;align=center;verticalAlign=middle;whiteSpace=wrap;rounded=0;" vertex="1" parent="1">
          <mxGeometry x="440" y="560" width="80" height="40" as="geometry" />
        </mxCell>
        <mxCell id="ebkvWAT0GK6iZ5UyHKcp-59" value="" style="endArrow=classic;html=1;rounded=0;exitX=1;exitY=0.5;exitDx=0;exitDy=0;entryX=0;entryY=0.5;entryDx=0;entryDy=0;fillColor=#fff2cc;strokeColor=#d6b656;" edge="1" parent="1" source="ebkvWAT0GK6iZ5UyHKcp-58" target="ebkvWAT0GK6iZ5UyHKcp-55">
          <mxGeometry width="50" height="50" relative="1" as="geometry">
            <mxPoint x="374" y="620" as="sourcePoint" />
            <mxPoint x="454" y="610" as="targetPoint" />
          </mxGeometry>
        </mxCell>
        <mxCell id="ebkvWAT0GK6iZ5UyHKcp-60" value="" style="group" vertex="1" connectable="0" parent="1">
          <mxGeometry x="160" y="560" width="200" height="80" as="geometry" />
        </mxCell>
        <mxCell id="ebkvWAT0GK6iZ5UyHKcp-56" value="" style="rounded=1;whiteSpace=wrap;html=1;fillColor=#fff2cc;strokeColor=#d6b656;" vertex="1" parent="ebkvWAT0GK6iZ5UyHKcp-60">
          <mxGeometry width="200" height="80" as="geometry" />
        </mxCell>
        <mxCell id="ebkvWAT0GK6iZ5UyHKcp-58" value="Interface With The Board That Is Observed" style="text;html=1;align=center;verticalAlign=middle;whiteSpace=wrap;rounded=0;" vertex="1" parent="ebkvWAT0GK6iZ5UyHKcp-60">
          <mxGeometry width="200" height="80" as="geometry" />
        </mxCell>
        <mxCell id="ebkvWAT0GK6iZ5UyHKcp-63" value="" style="rounded=1;whiteSpace=wrap;html=1;fillColor=#fff2cc;strokeColor=#d6b656;" vertex="1" parent="1">
          <mxGeometry x="640" y="180" width="127.5" height="60" as="geometry" />
        </mxCell>
        <mxCell id="ebkvWAT0GK6iZ5UyHKcp-64" value="I2C Communication" style="text;html=1;align=center;verticalAlign=middle;whiteSpace=wrap;rounded=0;" vertex="1" parent="1">
          <mxGeometry x="640" y="180" width="130" height="60" as="geometry" />
        </mxCell>
        <mxCell id="ebkvWAT0GK6iZ5UyHKcp-65" value="" style="endArrow=classic;html=1;rounded=0;exitX=0;exitY=0.5;exitDx=0;exitDy=0;fillColor=#fff2cc;strokeColor=#d6b656;" edge="1" parent="1" source="ebkvWAT0GK6iZ5UyHKcp-64">
          <mxGeometry width="50" height="50" relative="1" as="geometry">
            <mxPoint x="575" y="350" as="sourcePoint" />
            <mxPoint x="580" y="250" as="targetPoint" />
          </mxGeometry>
        </mxCell>
      </root>
    </mxGraphModel>
  </diagram>
</mxfile>
